<?xml version="1.0" encoding="utf-8"?>
<!-- Generator: Adobe Illustrator 20.1.0, SVG Export Plug-In . SVG Version: 6.00 Build 0)  -->
<svg version="1.1" xmlns="http://www.w3.org/2000/svg" xmlns:xlink="http://www.w3.org/1999/xlink" x="0px" y="0px"
	 viewBox="0 0 80.5 81.5" style="enable-background:new 0 0 80.5 81.5;" xml:space="preserve">
<style type="text/css">
	.st0{fill:#BFBFBF;}
	.st1{fill:#7BCCDB;}
	.st2{fill:#FFFFFF;}
	.st3{fill:#FFE07A;}
	.st4{fill:#374856;}
	.st5{fill:#F0F0D4;}
</style>
<g id="Layer_1">
	<circle class="st0" cx="41.9" cy="42.8" r="36.6"/>
	<circle class="st1" cx="38.6" cy="39.1" r="36.6"/>
	<path class="st2" d="M26,25.7l-3.6,0l0-3.5c0-0.5-0.4-0.9-0.9-0.9c-0.5,0-0.9,0.4-0.9,0.9l0,3.5l-3.6,0c-0.5,0-0.9,0.4-0.9,0.9
		c0,0.5,0.4,0.9,0.9,0.9l3.6,0l0,3.5c0,0.5,0.4,0.9,0.9,0.9c0.5,0,0.9-0.4,0.9-0.9l0-3.5l3.6,0c0.5,0,0.9-0.4,0.9-0.9
		C26.9,26.1,26.4,25.7,26,25.7z"/>
	<path class="st2" d="M72.3,30.3c-0.2-2.6-2.7-4.3-4.9-3.5c0.2-2.7-1.2-5.2-3.5-6.2c-2.3-1-5.1-0.2-6.6,2c-1.3-2.3-4.1-3.2-6.3-2.1
		c-2.2,1-3.4,3.6-2.9,6.2c-2.5-0.7-5,1.5-4.9,4.3c0.1,2.9,2.9,4.8,5.4,3.6c0.1,2.2,1.3,4.1,3.2,4.9c2,0.8,4.4,0.1,5.7-1.7
		c1.4,2.2,4.1,3.2,6.4,2.3c2.2-0.8,3.7-3,3.8-5.4C70.1,35.3,72.5,33.1,72.3,30.3C72.1,28.1,72.5,32.6,72.3,30.3z"/>
	<path class="st2" d="M36.4,33l-2.3,0l0-2.2c0-0.3-0.3-0.6-0.6-0.6c-0.3,0-0.6,0.2-0.6,0.6l0,2.2l-2.3,0c-0.3,0-0.6,0.2-0.6,0.5
		c0,0.3,0.2,0.6,0.6,0.6l2.3,0l0,2.2c0,0.3,0.3,0.5,0.6,0.5c0.3,0,0.6-0.2,0.6-0.5l0-2.2l2.3,0c0.3,0,0.6-0.2,0.6-0.5
		C37,33.2,36.7,33,36.4,33z"/>
	<path class="st3" d="M73.1,51C49.5,40.6,20,42.5,3.5,49.8c4.6,15,18.5,25.9,35,25.9C54.6,75.7,68.2,65.4,73.1,51z"/>
	<path class="st2" d="M30.1,12.4c-0.1-1.6-1.6-2.6-3-2.1c0.1-1.6-0.7-3.2-2.1-3.8c-1.4-0.6-3.1-0.1-4,1.2c-0.8-1.4-2.5-1.9-3.8-1.3
		c-1.3,0.6-2.1,2.2-1.8,3.7c-1.5-0.4-3,0.9-3,2.6c0.1,1.7,1.8,2.9,3.3,2.2c0,1.3,0.8,2.5,2,3c1.2,0.5,2.7,0.1,3.5-1.1
		c0.8,1.3,2.5,1.9,3.9,1.4c1.3-0.5,2.2-1.8,2.3-3.3C28.8,15.4,30.2,14.1,30.1,12.4C30,11,30.2,13.8,30.1,12.4z"/>
</g>
<g id="Layer_2">
	<g>
		<rect x="25.8" y="48.8" class="st2" width="25" height="1.9"/>
		<rect x="25.8" y="51.9" class="st2" width="25" height="1.9"/>
		<rect x="25.8" y="55" class="st2" width="25" height="1.9"/>
		<rect x="25.8" y="58.1" class="st2" width="25" height="1.9"/>
		<rect x="25.8" y="61.2" class="st2" width="25" height="1.9"/>
		<rect x="25.8" y="64.4" class="st2" width="25" height="1.9"/>
		<rect x="25.8" y="67.5" class="st2" width="12.5" height="1.9"/>
	</g>
	<rect x="40.6" y="47.1" transform="matrix(0.7351 -0.678 0.678 0.7351 -19.8898 48.0684)" class="st4" width="21.9" height="4.8"/>
	<polygon class="st5" points="42.7,59.2 45.1,58.7 41.9,55.1 41.1,57.5 	"/>
	<polygon class="st4" points="40.3,59.8 42.7,59.2 41.1,57.5 	"/>
</g>
</svg>
